/* XPM */
static char * east_xpm[] = {
"10 10 4 1",
" 	c #00FF00",
"+	c #FF0000",
"@	c #045AF7",
"#	c #065BF7",
"          ",
" ++++++++ ",
" ++++++++ ",
" ++       ",
" ++++++   ",
" ++++++   ",
" ++       ",
" ++++++++ ",
" ++++++++ ",
"          "};