/* XPM */
static char * west_xpm[] = {
"10 10 2 1",
" 	c #00FF00",
"+	c #FF0000",
"          ",
" +      + ",
" +      + ",
" +      + ",
" +  ++  + ",
" +  ++  + ",
" +  ++  + ",
" +  ++  + ",
" ++++++++ ",
"          "};
