/* XPM */
static char * north_2_xpm[] = {
"10 10 2 1",
" 	c #FFFFFF",
".	c #000000",
"          ",
" ..     . ",
" ...    . ",
" ...    . ",
" . ..   . ",
" .  ..  . ",
" .   .... ",
" .    ... ",
" .     .. ",
"          "};
