/* XPM */
static char * east_xpm[] = {
"10 10 2 1",
" 	c #145F88",
"+	c #FFFFFF",
"+        +",
" +      + ",
"  +    +  ",
"   ++++   ",
"   +  +   ",
"   +  +   ",
"   ++++   ",
"  +    +  ",
" +      + ",
"+        +"};