/* XPM */
static char * west_xpm[] = {
"10 10 2 1",
" 	c #145F88",
"+	c #FFFFFF",
"          ",
" ++++++++ ",
" +      + ",
" + ++++ + ",
" + +  + + ",
" + +  + + ",
" + ++++ + ",
" +      + ",
" ++++++++ ",
"          "};
