/* XPM */
static char * north_xpm[] = {
"100 100 33 1",
" 	c #FFFFFF",
".	c #7A7A7A",
"+	c #000000",
"@	c #E8E8E8",
"#	c #BABABA",
"$	c #373737",
"%	c #D2D2D2",
"&	c #0C0C0C",
"*	c #8C8C8C",
"=	c #191919",
"-	c #707070",
";	c #BFBFBF",
">	c #2B2B2B",
",	c #595959",
"'	c #9A9A9A",
")	c #636363",
"!	c #7C7C7C",
"~	c #3E3E3E",
"{	c #262626",
"]	c #151515",
"^	c #4F4F4F",
"/	c #AAAAAA",
"(	c #ADADAD",
"_	c #464646",
":	c #4E4E4E",
"<	c #585858",
"[	c #BCBCBC",
"}	c #1C1C1C",
"|	c #313131",
"1	c #898989",
"2	c #383838",
"3	c #303030",
"4	c #CDCDCD",
"                                                                                                    ",
"                                                                                                    ",
"                                                                                                    ",
"                                                                                                    ",
"                                                                                                    ",
"                                                                                                    ",
"                                                                                                    ",
"                                                                                                    ",
"                                                                                                    ",
"                                                                                                    ",
"                                                                             .++@                   ",
"               +++                                                         .++++++@                 ",
"             +++++++                                                      .++++++++@                ",
"            +++++++++                                                     +++++++++#                ",
"           @++++++++++                                                   .++++++++++@               ",
"           ++++++++++++                                                  $++++++++++%               ",
"          @+++++++++++++                                                 &++++++++++*               ",
"          %++++++++++++++                                                =++++++++++-               ",
"          ;+++++++++++++++                                               >++++++++++,               ",
"          '++++++++++++++++                                              )++++++++++)               ",
"          !+++++++++++++++++                                             !++++++++++~               ",
"          )++++++++++++++++++                                            '++++++++++{               ",
"          )+++++++++++++++++++@                                          ;++++++++++]               ",
"          ~++++++++++++++++++++@                                         ;++++++++++]               ",
"          {+++++++++++++++++++++                                         ;++++++++++]               ",
"          ]+++++++++++++++++++++^                                        ;++++++++++]               ",
"          ]++++++++++++++++++++++/                                       %+++++++++++               ",
"          ]+++++++++++++++++++++++%                                      @+++++++++++               ",
"          ]++++++++++++++++++++++++*                                      +++++++++++@              ",
"          ]++++++++++(++++++++++++++~@                                    +++++++++++%              ",
"          ]++++++++++;@+++++++++++++++@                                   ]++++++++++;              ",
"          ]++++++++++;  +++++++++++++++@                                  ]++++++++++;              ",
"          ]++++++++++;  /+++++++++++++++*                                 ]++++++++++;              ",
"          ]++++++++++;   ^+++++++++++++++_@                               ]++++++++++;              ",
"          ]++++++++++;    $++++++++++++++++'                              ]++++++++++;              ",
"          ]++++++++++;     $++++++++++++++++:@                            ]++++++++++;              ",
"          ]++++++++++;      <+++++++++++++++++/                           ]++++++++++;              ",
"          ]++++++++++;       /+++++++++++++++++[                          ]++++++++++;              ",
"          ]++++++++++;        @}++++++++++++++++/                         ]++++++++++;              ",
"          ]++++++++++;          |++++++++++++++++/                        ]++++++++++;              ",
"          ]++++++++++;           <++++++++++++++++1                       ]++++++++++;              ",
"          ]++++++++++;            1++++++++++++++++2                      ]++++++++++;              ",
"          ]++++++++++;             [++++++++++++++++}@                    ]++++++++++;              ",
"          +++++++++++%               )++++++++++++++++/                   ]++++++++++;              ",
"          +++++++++++/                [++++++++++++++++1                  ]++++++++++;              ",
"          +++++++++++1                  ~+++++++++++++++)                 ]++++++++++;              ",
"          )++++++++++)                   <+++++++++++++++)                ]++++++++++;              ",
"          )++++++++++)                    1+++++++++++++++<               ]++++++++++;              ",
"          )++++++++++)                     1++++++++++++++++              ]++++++++++;              ",
"          )++++++++++)                      /++++++++++++++++             ]++++++++++;              ",
"          )++++++++++)                       %++++++++++++++++            +++++++++++%              ",
"          )++++++++++)                        @~+++++++++++++++           +++++++++++@              ",
"          )++++++++++)                          ,+++++++++++++++[         +++++++++++               ",
"          )++++++++++)                           )+++++++++++++++[        +++++++++++               ",
"          )++++++++++)                            1+++++++++++++++        +++++++++++               ",
"          )++++++++++)                             /+++++++++++++++       +++++++++++               ",
"          !++++++++++~                              @++++++++++++++1      +++++++++++               ",
"          '++++++++++{                                ++++++++++++++1     +++++++++++               ",
"          '++++++++++{                                 ++++++++++++++[    +++++++++++               ",
"          /+++++++++++                                  ++++++++++++++    +++++++++++               ",
"          [+++++++++++                                   +++++++++++++)   +++++++++++               ",
"           +++++++++++                                   [+++++++++++++/  +++++++++++               ",
"           +++++++++++                                    1+++++++++++++@ +++++++++++               ",
"           +++++++++++                                     !++++++++++++3 +++++++++++               ",
"           +++++++++++                                      :++++++++++++'+++++++++++               ",
"           +++++++++++                                      @++++++++++++++++++++++++               ",
"           +++++++++++                                       /+++++++++++++++++++++++               ",
"           +++++++++++                                        !++++++++++++++++++++++               ",
"           +++++++++++                                         3+++++++++++++++++++++               ",
"           +++++++++++                                         @+++++++++++++++++++++               ",
"           +++++++++++                                          !++++++++++++++++++++               ",
"           +++++++++++@                                          ++++++++++++++++++++               ",
"           +++++++++++%                                          [+++++++++++++++++++               ",
"           ]++++++++++;                                           ^++++++++++++++++++               ",
"           ]++++++++++;                                            |+++++++++++++++++               ",
"           ]++++++++++;                                             {+++++++++++++++]               ",
"           ]++++++++++;                                              +++++++++++++++]               ",
"           ]++++++++++;                                              [++++++++++++++{               ",
"           ]++++++++++;                                               <+++++++++++++<               ",
"           ]++++++++++;                                                +++++++++++++[               ",
"           ]++++++++++%                                                 ++++++++++++                ",
"           +++++++++++@                                                  ++++++++++[                ",
"           +++++++++++                                                   /++++++++1                 ",
"           @+++++++++%                                                    /++++++[                  ",
"            +++++++++                                                       /++[                    ",
"            @+++++++@                                                                               ",
"             @4+++4@                                                                                ",
"               @@@                                                                                  ",
"                                                                                                    ",
"                                                                                                    ",
"                                                                                                    ",
"                                                                                                    ",
"                                                                                                    ",
"                                                                                                    ",
"                                                                                                    ",
"                                                                                                    ",
"                                                                                                    ",
"                                                                                                    ",
"                                                                                                    ",
"                                                                                                    "};
